<svg width="55px" viewBox="0 0 661 661" fill="none" xmlns="http://www.w3.org/2000/svg" alt="Autonity Icon"><path d="M316.453 180.002C278.048 180.002 244.452 193.615 217.3 219.895C195.533 240.868 183.681 271.398 180.858 310.926H150.892L142 349.061H180.843C183.528 386.283 194.429 416.776 214.025 440.093C236.507 466.673 271.537 480 316.453 480C343.52 480 362.193 477.332 373.24 468.204C387.61 456.41 394.998 448.438 403.599 433.932C406.939 442.617 411.558 445.791 417.599 451.279L417.673 451.335C434.135 465.933 452.578 473.897 472.117 473.897H510V422.454H478.244C476.062 422.454 470.657 420.182 463.72 412.982C458.014 407.055 454.628 400.874 453.212 394.037L443.927 349.06L510 349.057V310.92H452.753L501.821 186.102H440.843L420.235 242.339C413.626 224.193 403.938 211.77 389.891 201.065C371.281 186.883 346.38 180.002 316.453 180.002ZM316.453 231.445C360.46 231.445 368.554 259.77 376.892 310.924L249.813 310.926C254.866 260.72 274.806 231.445 316.453 231.445ZM249.419 349.061L376.892 349.06C370.844 391.388 350.387 429.545 316.469 429.545C269.308 429.545 254.679 398.882 249.419 349.061Z" fill="currentColor"></path><path fill-rule="evenodd" clip-rule="evenodd" d="M0 0H661V661H0V0ZM69 69H592V592H69V69Z" fill="currentColor"></path></svg>